<?xml version="1.0" encoding="UTF-8"?><svg id="Layer_2" xmlns="http://www.w3.org/2000/svg" viewBox="0 0 1024 1024"><defs><style>.cls-1{fill:#ffcf03;}.cls-2{fill:#0e0e21;}.cls-3{fill:#f8f4f9;}</style></defs><rect class="cls-3" x="0" y="0" width="1024" height="1024" rx="512" ry="512"/><g id="Layer_1-2"><path class="cls-2" d="M808.79,544.42l-29.2-80.39c-5.42-14.44-20.18-23.47-35.47-21.13l-33.98,5.42c-14.76,2.23-26.02,14.44-26.97,29.2l-17.95,220.66c-1.17,13.49-10.3,24.74-23.47,28.57-16.35,4.46-43.75,9.45-86.44,9.45-150.79,0-227.14-141.34-251.78-198.26-5.63-13.59-20.18-21.34-34.62-19.11h0c-21.77,3.4-33.56,26.97-23.57,46.51,22.94,45.34,57.87,104.7,58.19,105.23,13.59,24.11,9.98,43.33,4.35,55.96-4.99,11.04-3.4,24.11,4.46,33.56,26.97,32.92,93.66,95.25,203.89,88.03,12.96-.64,24.11-9.13,28.57-21.34,4.99-13.59,16.99-30.16,44.92-30.16,104.07,0,132.31-36.85,139.53-53.1,1.59-3.4,2.23-7.22,2.76-11.04l10.62-150.79c.53-7.86,7.22-13.59,14.76-13.59h38.12c12.21,0,19.22-13.49,13.49-23.57"/><path class="cls-2" d="M633.79,408.39l108.95-17.52c7.22-1.17,11.89-8.39,9.98-15.19-5.63-19.75-13.49-38.87-22.94-56.49-3.82-6.9-12.53-8.39-18.58-3.82l-87.29,70.72c-9.98,7.86-2.76,23.57,9.98,21.77h0v.53h-.11Z"/><path class="cls-2" d="M591.73,346.59l89.84-72.85c5.63-4.46,6.05-13.27,1.17-18.16-15.19-15.19-31.96-28.35-49.91-39.61-6.58-4.35-15.19-1.17-17.95,6.05l-42.16,110.54c-4.46,11.89,9.45,21.98,19.22,14.12h-.53.21l.21-.21-.11.11Z"/><path class="cls-2" d="M449.54,319.83l-19.75-124.67c-1.17-7.22-8.39-11.89-15.61-9.98-22.94,6.58-43.75,15.19-63.5,26.76-6.58,3.82-7.86,12.53-3.4,18.16l80.39,99.08c7.86,9.98,23.57,2.76,21.77-9.45h.53-.53l.11.11Z"/><path class="cls-2" d="M355.35,429.73l-119.78-45.87c-6.9-2.76-14.76,1.59-16.35,8.81-4.99,22.41-6.9,45.87-6.05,69.02,0,7.22,7.22,12.53,14.44,11.36l124.99-19.75c12.53-2.12,14.12-19.11,2.76-23.57h.21-.21Z"/><path class="cls-2" d="M387.74,362.3l-81.34-99.82c-4.46-5.63-13.27-6.05-18.58-.64-15.93,16.99-29.63,36.21-41.1,56.49-3.4,6.58-.53,14.76,6.58,17.52l120.42,46.09c11.89,4.46,21.98-9.45,14.12-19.22h0l-.21-.32.11-.11Z"/><path class="cls-2" d="M524.09,314.2l43.33-113.41c2.76-6.9-1.17-14.44-8.39-16.35-21.34-5.63-43.33-8.81-65.73-9.13-7.75,0-13.27,6.9-12.21,14.44l19.22,122.33c2.12,12.53,19.11,14.12,23.57,2.76h0v-.53h0l.21-.21v.11Z"/><path class="cls-1" d="M625.93,612.91c-40.88,3.82-77.31,30.16-94.19,67.32-1.59,3.4-6.58,2.76-6.9-1.17-3.82-40.88-30.16-77.31-67.32-94.19-3.4-1.59-2.76-6.58,1.17-6.9,40.88-3.82,77.31-30.16,94.19-67.32,1.59-3.4,6.58-2.76,6.9,1.17,3.82,40.88,30.16,77.31,67.32,94.19,3.4,1.59,2.76,6.58-1.17,6.9"/><path class="cls-1" d="M550.85,441.41c-26.34,9.98-46.09,33.98-50.33,61.27,0,2.76-3.82,2.87-4.99,0-9.98-26.34-33.98-46.09-61.27-50.33-2.76,0-2.87-3.82,0-4.46,26.34-9.98,46.09-33.98,50.33-61.27,0-2.76,3.82-2.87,4.99,0,9.98,26.34,33.98,46.09,61.27,50.33,2.76,0,2.87,3.82,0,4.46"/><path class="cls-1" d="M445.51,529.02c-16.35,6.05-28.99,21.13-31.75,38.12,0,1.59-2.23,2.12-2.87,0-6.05-16.35-21.13-28.99-38.12-31.75-1.59,0-2.12-2.23,0-2.87,16.35-6.05,28.99-21.13,31.75-38.12,0-1.59,2.23-2.12,2.87,0,6.05,16.35,21.13,28.99,38.12,31.75,1.59,0,2.12,2.23,0,2.87"/></g></svg>